<svg width="56" height="56" viewBox="0 0 56 56" fill="none" xmlns="http://www.w3.org/2000/svg">
<g id="ic:baseline-construction">
<path id="Vector" d="M32.1604 35.4013L37.1094 30.4523L51.1 44.443L46.151 49.392L32.1604 35.4013ZM40.8334 23.3333C45.3367 23.3333 49 19.67 49 15.1666C49 13.8133 48.6267 12.5533 48.0434 11.4333L41.7434 17.7333L38.2667 14.2566L44.5667 7.95664C43.4467 7.3733 42.1867 6.99997 40.8334 6.99997C36.33 6.99997 32.6667 10.6633 32.6667 15.1666C32.6667 16.1233 32.8534 17.0333 33.1567 17.8733L28.84 22.19L24.6867 18.0366L26.3434 16.38L23.0534 13.09L28 8.1433C26.6875 6.83243 24.9084 6.09613 23.0534 6.09613C21.1984 6.09613 19.4192 6.83243 18.1067 8.1433L9.84669 16.4033L13.1367 19.6933H6.55669L4.90002 21.35L13.16 29.61L14.8167 27.9533V21.35L18.1067 24.64L19.7634 22.9833L23.9167 27.1366L6.62669 44.4266L11.5734 49.3733L38.1267 22.8433C38.9667 23.1466 39.8767 23.3333 40.8334 23.3333Z" fill="#434343"/>
</g>
</svg>
