<svg width="56" height="56" viewBox="0 0 56 56" fill="none" xmlns="http://www.w3.org/2000/svg">
<g id="bx:bxs-building-house">
<path id="Vector" d="M44.3123 4.66669H21.0233C18.431 4.66669 16.3333 6.76435 16.3333 9.35669V22.5097L5.36199 33.341C5.03326 33.6661 4.80852 34.0816 4.71631 34.5347C4.6241 34.9877 4.66856 35.458 4.84406 35.8857C5.01956 36.3135 5.31818 36.6794 5.70203 36.9372C6.08587 37.1949 6.53764 37.3328 6.99999 37.3334V49C6.99999 49.6189 7.24582 50.2124 7.68341 50.6499C8.12099 51.0875 8.71448 51.3334 9.33332 51.3334H46.6667C47.2855 51.3334 47.879 51.0875 48.3166 50.6499C48.7542 50.2124 49 49.6189 49 49V9.35435C49 6.76435 46.9046 4.66669 44.3123 4.66669ZM25.4847 35.259V46.6667H11.6667V33.6747L18.6363 26.7937L25.4847 33.8007V35.259ZM30.3333 21H25.6667V16.3334H30.3333V21ZM39.6666 39.6667H35V35H39.6666V39.6667ZM39.6666 30.3334H35V25.6667H39.6666V30.3334ZM39.6666 21H35V16.3334H39.6666V21Z" fill="#434343"/>
<path id="Vector_2" d="M16.3334 35H21V39.6667H16.3334V35Z" fill="#434343"/>
</g>
</svg>
