<svg width="56" height="56" viewBox="0 0 56 56" fill="none" xmlns="http://www.w3.org/2000/svg">
<g id="mdi:sofa">
<path id="Vector" d="M29.1667 16.3334C29.1667 13.7434 31.2434 11.6667 33.8334 11.6667H42C44.5667 11.6667 46.6667 13.7667 46.6667 16.3334V21.3734C43.96 22.33 42 24.8967 42 27.93V32.6667H29.1667V16.3334ZM14 27.9067V32.6667H26.8334V16.3334C26.8334 13.7434 24.7567 11.6667 22.1667 11.6667H14C11.4334 11.6667 9.33337 13.7667 9.33337 16.3334V21.35C12.04 22.3067 14 24.8967 14 27.9067ZM48.2067 23.4034C45.92 23.7767 44.3334 25.9467 44.3334 28.28V35H11.6667V28C11.6667 26.7623 11.175 25.5754 10.2999 24.7002C9.4247 23.825 8.23772 23.3334 7.00004 23.3334C5.76236 23.3334 4.57538 23.825 3.70021 24.7002C2.82504 25.5754 2.33337 26.7623 2.33337 28V39.6667C2.33337 42.2334 4.43337 44.3334 7.00004 44.3334V49H11.6667V44.3334H44.3334V49H49V44.3334C51.5667 44.3334 53.6667 42.2334 53.6667 39.6667V28C53.6667 25.1767 51.1234 22.9134 48.2067 23.4034Z" fill="#434343"/>
</g>
</svg>
